<mxfile host="app.diagrams.net" modified="2024-06-19T13:32:44.809Z" agent="Mozilla/5.0 (Windows NT 10.0; Win64; x64) AppleWebKit/537.36 (KHTML, like Gecko) Chrome/124.0.0.0 Safari/537.36" etag="3BwOoabQ1P1THd0yWOnc" version="24.5.5" type="device">
  <diagram name="Page-1" id="_9r6geDOEYo5xFr4fmT0">
    <mxGraphModel dx="2924" dy="2206" grid="1" gridSize="10" guides="1" tooltips="1" connect="1" arrows="1" fold="1" page="1" pageScale="1" pageWidth="850" pageHeight="1100" background="#FFFFFF" math="0" shadow="0">
      <root>
        <mxCell id="0" />
        <mxCell id="1" parent="0" />
        <mxCell id="sWa0SD8Ajx1KSGOqKPP4-1" value="Elizabeth Simcoe miscellaneous sketches and fragments" style="swimlane;fontStyle=0;childLayout=stackLayout;horizontal=1;startSize=26;fillColor=none;horizontalStack=0;resizeParent=1;resizeParentMax=0;resizeLast=0;collapsible=1;marginBottom=0;whiteSpace=wrap;html=1;" parent="1" vertex="1">
          <mxGeometry x="320" y="370" width="210" height="52" as="geometry" />
        </mxCell>
        <mxCell id="sWa0SD8Ajx1KSGOqKPP4-2" value="rico:RecordSet" style="text;strokeColor=none;fillColor=none;align=center;verticalAlign=top;spacingLeft=4;spacingRight=4;overflow=hidden;rotatable=0;points=[[0,0.5],[1,0.5]];portConstraint=eastwest;whiteSpace=wrap;html=1;" parent="sWa0SD8Ajx1KSGOqKPP4-1" vertex="1">
          <mxGeometry y="26" width="210" height="26" as="geometry" />
        </mxCell>
        <mxCell id="sWa0SD8Ajx1KSGOqKPP4-3" value="Sub-Series" style="swimlane;fontStyle=0;childLayout=stackLayout;horizontal=1;startSize=26;fillColor=none;horizontalStack=0;resizeParent=1;resizeParentMax=0;resizeLast=0;collapsible=1;marginBottom=0;whiteSpace=wrap;html=1;" parent="1" vertex="1">
          <mxGeometry x="830" y="318" width="160" height="52" as="geometry">
            <mxRectangle x="981" y="570" width="50" height="40" as="alternateBounds" />
          </mxGeometry>
        </mxCell>
        <mxCell id="sWa0SD8Ajx1KSGOqKPP4-4" value="rico:RecordSetType&lt;div&gt;&lt;br&gt;&lt;/div&gt;" style="text;strokeColor=none;fillColor=none;align=center;verticalAlign=top;spacingLeft=4;spacingRight=4;overflow=hidden;rotatable=0;points=[[0,0.5],[1,0.5]];portConstraint=eastwest;whiteSpace=wrap;html=1;" parent="sWa0SD8Ajx1KSGOqKPP4-3" vertex="1">
          <mxGeometry y="26" width="160" height="26" as="geometry" />
        </mxCell>
        <mxCell id="sWa0SD8Ajx1KSGOqKPP4-5" value="" style="endArrow=classic;html=1;rounded=0;entryX=0;entryY=0.5;entryDx=0;entryDy=0;exitX=1;exitY=0.25;exitDx=0;exitDy=0;" parent="1" source="sWa0SD8Ajx1KSGOqKPP4-1" target="sWa0SD8Ajx1KSGOqKPP4-4" edge="1">
          <mxGeometry relative="1" as="geometry">
            <mxPoint x="530" y="380" as="sourcePoint" />
            <mxPoint x="610" y="390" as="targetPoint" />
          </mxGeometry>
        </mxCell>
        <mxCell id="sWa0SD8Ajx1KSGOqKPP4-6" value="rico:hasRecordSetType" style="edgeLabel;resizable=0;html=1;;align=center;verticalAlign=middle;" parent="sWa0SD8Ajx1KSGOqKPP4-5" connectable="0" vertex="1">
          <mxGeometry relative="1" as="geometry" />
        </mxCell>
        <mxCell id="sWa0SD8Ajx1KSGOqKPP4-11" value="&lt;blockquote style=&quot;margin: 0 0 0 40px; border: none; padding: 0px;&quot;&gt;&lt;div&gt;Sub-series consists of miscellaneous watercolour and drawing fragments, which were kept separately from the completed pieces contained in sub-series F 47-11-1.&lt;/div&gt;&lt;div&gt;The first group, F 47-11-3-1, contains fragments of views of what appears to be Upper Canada; most are smudged and unidentified. Two fragments contain no sketch but identity Kingston, and &quot;near Queenston&quot;, which suggests these may have been backing paper for a smaller mounted drawing. The second group, F 47-11-3-2, contains watercolour and drawing fragments of places in England and Europe, drawn after Mrs. Simcoe&#39;s return to England. Many of these have some identification. Differences in style suggest that some were not created by Mrs. Simcoe.&lt;/div&gt;&lt;/blockquote&gt;" style="html=1;whiteSpace=wrap;rounded=1;arcSize=50;align=left;" parent="1" vertex="1">
          <mxGeometry x="-760" y="165" width="720" height="110" as="geometry" />
        </mxCell>
        <mxCell id="sWa0SD8Ajx1KSGOqKPP4-12" value="" style="endArrow=classic;html=1;rounded=0;exitX=0.003;exitY=0.038;exitDx=0;exitDy=0;exitPerimeter=0;entryX=0.982;entryY=0.767;entryDx=0;entryDy=0;entryPerimeter=0;" parent="1" source="sWa0SD8Ajx1KSGOqKPP4-2" target="sWa0SD8Ajx1KSGOqKPP4-11" edge="1">
          <mxGeometry relative="1" as="geometry">
            <mxPoint x="290" y="400" as="sourcePoint" />
            <mxPoint x="50" y="280" as="targetPoint" />
          </mxGeometry>
        </mxCell>
        <mxCell id="sWa0SD8Ajx1KSGOqKPP4-13" value="rico:scopeAndContent" style="edgeLabel;resizable=0;html=1;;align=center;verticalAlign=middle;" parent="sWa0SD8Ajx1KSGOqKPP4-12" connectable="0" vertex="1">
          <mxGeometry relative="1" as="geometry" />
        </mxCell>
        <mxCell id="sWa0SD8Ajx1KSGOqKPP4-14" value="Elizabeth Simcoe miscellaneous sketches and fragments-i1" style="swimlane;fontStyle=0;childLayout=stackLayout;horizontal=1;startSize=26;fillColor=none;horizontalStack=0;resizeParent=1;resizeParentMax=0;resizeLast=0;collapsible=1;marginBottom=0;whiteSpace=wrap;html=1;strokeColor=#FF0000;" parent="1" vertex="1">
          <mxGeometry x="-140" y="396" width="220" height="52" as="geometry" />
        </mxCell>
        <mxCell id="sWa0SD8Ajx1KSGOqKPP4-15" value="rico:Instantiation&lt;div&gt;&lt;br&gt;&lt;/div&gt;" style="text;strokeColor=none;fillColor=none;align=center;verticalAlign=top;spacingLeft=4;spacingRight=4;overflow=hidden;rotatable=0;points=[[0,0.5],[1,0.5]];portConstraint=eastwest;whiteSpace=wrap;html=1;" parent="sWa0SD8Ajx1KSGOqKPP4-14" vertex="1">
          <mxGeometry y="26" width="220" height="26" as="geometry" />
        </mxCell>
        <mxCell id="K4QZWATomJR9_dxTVFmW-19" value="" style="endArrow=classic;html=1;rounded=0;exitX=0.339;exitY=1.026;exitDx=0;exitDy=0;exitPerimeter=0;entryX=0.536;entryY=-0.044;entryDx=0;entryDy=0;entryPerimeter=0;" parent="1" source="sWa0SD8Ajx1KSGOqKPP4-2" target="K4QZWATomJR9_dxTVFmW-21" edge="1">
          <mxGeometry relative="1" as="geometry">
            <mxPoint x="361" y="420" as="sourcePoint" />
            <mxPoint x="120" y="780" as="targetPoint" />
          </mxGeometry>
        </mxCell>
        <mxCell id="K4QZWATomJR9_dxTVFmW-20" value="rico:history" style="edgeLabel;resizable=0;html=1;;align=center;verticalAlign=middle;" parent="K4QZWATomJR9_dxTVFmW-19" connectable="0" vertex="1">
          <mxGeometry relative="1" as="geometry">
            <mxPoint x="-120" y="147" as="offset" />
          </mxGeometry>
        </mxCell>
        <mxCell id="K4QZWATomJR9_dxTVFmW-21" value="Custodial History: The material in this sub-series was acquired in 1952 under the terms of a long-term loan agreement with the University of Toronto Library, which owns the records." style="html=1;whiteSpace=wrap;rounded=1;arcSize=50;" parent="1" vertex="1">
          <mxGeometry x="-80" y="840" width="305.5" height="80" as="geometry" />
        </mxCell>
        <mxCell id="K4QZWATomJR9_dxTVFmW-37" value="" style="endArrow=classic;html=1;rounded=0;entryX=1;entryY=0.5;entryDx=0;entryDy=0;exitX=-0.002;exitY=0.288;exitDx=0;exitDy=0;exitPerimeter=0;" parent="1" source="sWa0SD8Ajx1KSGOqKPP4-2" target="sWa0SD8Ajx1KSGOqKPP4-14" edge="1">
          <mxGeometry relative="1" as="geometry">
            <mxPoint x="280" y="420" as="sourcePoint" />
            <mxPoint x="110" y="490" as="targetPoint" />
          </mxGeometry>
        </mxCell>
        <mxCell id="K4QZWATomJR9_dxTVFmW-38" value="rico:hasOrHadInstantiation" style="edgeLabel;resizable=0;html=1;;align=center;verticalAlign=middle;" parent="K4QZWATomJR9_dxTVFmW-37" connectable="0" vertex="1">
          <mxGeometry relative="1" as="geometry">
            <mxPoint x="-34" y="5" as="offset" />
          </mxGeometry>
        </mxCell>
        <mxCell id="K4QZWATomJR9_dxTVFmW-41" value="" style="endArrow=classic;html=1;rounded=0;entryX=1;entryY=0.5;entryDx=0;entryDy=0;exitX=0;exitY=0.125;exitDx=0;exitDy=0;exitPerimeter=0;" parent="1" source="sWa0SD8Ajx1KSGOqKPP4-15" target="K4QZWATomJR9_dxTVFmW-45" edge="1">
          <mxGeometry relative="1" as="geometry">
            <mxPoint x="-160" y="493" as="sourcePoint" />
            <mxPoint x="-290" y="494.5" as="targetPoint" />
          </mxGeometry>
        </mxCell>
        <mxCell id="K4QZWATomJR9_dxTVFmW-42" value="rico:instantiationExtent" style="edgeLabel;resizable=0;html=1;;align=center;verticalAlign=middle;" parent="K4QZWATomJR9_dxTVFmW-41" connectable="0" vertex="1">
          <mxGeometry relative="1" as="geometry" />
        </mxCell>
        <mxCell id="K4QZWATomJR9_dxTVFmW-45" value="&lt;blockquote style=&quot;margin: 0 0 0 40px; border: none; padding: 0px;&quot;&gt;&lt;span style=&quot;background-color: initial;&quot;&gt;35 watercolours&lt;/span&gt;&lt;div&gt;5 drawings&lt;/div&gt;&lt;/blockquote&gt;" style="html=1;whiteSpace=wrap;rounded=1;arcSize=50;strokeColor=#000000;align=left;" parent="1" vertex="1">
          <mxGeometry x="-460" y="500" width="145" height="40" as="geometry" />
        </mxCell>
        <mxCell id="vEi_3DjQt7wcUmB-cSFn-1" value="" style="endArrow=classic;html=1;rounded=0;exitX=0.624;exitY=1.013;exitDx=0;exitDy=0;exitPerimeter=0;entryX=0.403;entryY=0.004;entryDx=0;entryDy=0;entryPerimeter=0;" parent="1" source="sWa0SD8Ajx1KSGOqKPP4-2" target="vEi_3DjQt7wcUmB-cSFn-3" edge="1">
          <mxGeometry relative="1" as="geometry">
            <mxPoint x="390" y="422" as="sourcePoint" />
            <mxPoint x="345" y="780" as="targetPoint" />
          </mxGeometry>
        </mxCell>
        <mxCell id="vEi_3DjQt7wcUmB-cSFn-2" value="rico:conditionsOfAccess" style="edgeLabel;resizable=0;html=1;;align=center;verticalAlign=middle;" parent="vEi_3DjQt7wcUmB-cSFn-1" connectable="0" vertex="1">
          <mxGeometry relative="1" as="geometry">
            <mxPoint x="-23" y="68" as="offset" />
          </mxGeometry>
        </mxCell>
        <mxCell id="vEi_3DjQt7wcUmB-cSFn-3" value="No restrictions on access." style="html=1;whiteSpace=wrap;rounded=1;arcSize=50;strokeColor=#000000;" parent="1" vertex="1">
          <mxGeometry x="250" y="810" width="150" height="30" as="geometry" />
        </mxCell>
        <mxCell id="vEi_3DjQt7wcUmB-cSFn-4" value="" style="endArrow=classic;html=1;rounded=0;entryX=0.25;entryY=0;entryDx=0;entryDy=0;exitX=0.747;exitY=1.006;exitDx=0;exitDy=0;exitPerimeter=0;" parent="1" source="sWa0SD8Ajx1KSGOqKPP4-2" target="vEi_3DjQt7wcUmB-cSFn-6" edge="1">
          <mxGeometry relative="1" as="geometry">
            <mxPoint x="400" y="430" as="sourcePoint" />
            <mxPoint x="420" y="780" as="targetPoint" />
          </mxGeometry>
        </mxCell>
        <mxCell id="vEi_3DjQt7wcUmB-cSFn-5" value="rico:conditionsOfUse" style="edgeLabel;resizable=0;html=1;;align=center;verticalAlign=middle;" parent="vEi_3DjQt7wcUmB-cSFn-4" connectable="0" vertex="1">
          <mxGeometry relative="1" as="geometry">
            <mxPoint x="8" y="39" as="offset" />
          </mxGeometry>
        </mxCell>
        <mxCell id="vEi_3DjQt7wcUmB-cSFn-6" value="Records are in the public domain. There are no restrictions on reproduction for research and private study.&amp;nbsp; If you wish to use any of this material for a purpose other than research and private study, submit a Request for Permission to Publish, Exhibit or Broadcast Form." style="html=1;whiteSpace=wrap;rounded=1;arcSize=50;" parent="1" vertex="1">
          <mxGeometry x="430" y="700" width="380" height="80" as="geometry" />
        </mxCell>
        <mxCell id="vEi_3DjQt7wcUmB-cSFn-7" value="" style="endArrow=classic;html=1;rounded=0;entryX=0.376;entryY=-0.04;entryDx=0;entryDy=0;entryPerimeter=0;exitX=0.87;exitY=1.026;exitDx=0;exitDy=0;exitPerimeter=0;" parent="1" source="sWa0SD8Ajx1KSGOqKPP4-2" target="vEi_3DjQt7wcUmB-cSFn-9" edge="1">
          <mxGeometry relative="1" as="geometry">
            <mxPoint x="420" y="420" as="sourcePoint" />
            <mxPoint x="510" y="700" as="targetPoint" />
          </mxGeometry>
        </mxCell>
        <mxCell id="vEi_3DjQt7wcUmB-cSFn-8" value="rico:generalDescription" style="edgeLabel;resizable=0;html=1;;align=center;verticalAlign=middle;" parent="vEi_3DjQt7wcUmB-cSFn-7" connectable="0" vertex="1">
          <mxGeometry relative="1" as="geometry">
            <mxPoint x="53" y="30" as="offset" />
          </mxGeometry>
        </mxCell>
        <mxCell id="vEi_3DjQt7wcUmB-cSFn-9" value="Finding Aid Note: An online list is available for this sub-series." style="html=1;whiteSpace=wrap;rounded=1;arcSize=50;" parent="1" vertex="1">
          <mxGeometry x="640" y="580" width="130" height="50" as="geometry" />
        </mxCell>
        <mxCell id="wiPwyt0miK05mvKJtJq--11" value="" style="endArrow=classic;html=1;rounded=0;exitX=1;exitY=0.5;exitDx=0;exitDy=0;entryX=0;entryY=0.25;entryDx=0;entryDy=0;" parent="1" source="sWa0SD8Ajx1KSGOqKPP4-2" target="wiPwyt0miK05mvKJtJq--13" edge="1">
          <mxGeometry relative="1" as="geometry">
            <mxPoint x="550" y="450" as="sourcePoint" />
            <mxPoint x="920" y="580" as="targetPoint" />
          </mxGeometry>
        </mxCell>
        <mxCell id="wiPwyt0miK05mvKJtJq--12" value="rico:accruals" style="edgeLabel;resizable=0;html=1;;align=center;verticalAlign=middle;" parent="wiPwyt0miK05mvKJtJq--11" connectable="0" vertex="1">
          <mxGeometry relative="1" as="geometry" />
        </mxCell>
        <mxCell id="wiPwyt0miK05mvKJtJq--13" value="No further accruals are expected." style="html=1;whiteSpace=wrap;rounded=1;arcSize=50;" parent="1" vertex="1">
          <mxGeometry x="1000" y="450" width="110" height="50" as="geometry" />
        </mxCell>
        <mxCell id="wiPwyt0miK05mvKJtJq--20" value="" style="endArrow=classic;html=1;rounded=0;exitX=0;exitY=0.25;exitDx=0;exitDy=0;entryX=0.992;entryY=0.4;entryDx=0;entryDy=0;entryPerimeter=0;" parent="1" source="sWa0SD8Ajx1KSGOqKPP4-14" target="wiPwyt0miK05mvKJtJq--22" edge="1">
          <mxGeometry relative="1" as="geometry">
            <mxPoint x="-211" y="350" as="sourcePoint" />
            <mxPoint x="-130" y="290" as="targetPoint" />
          </mxGeometry>
        </mxCell>
        <mxCell id="wiPwyt0miK05mvKJtJq--21" value="rico:generalDescription" style="edgeLabel;resizable=0;html=1;;align=center;verticalAlign=middle;" parent="wiPwyt0miK05mvKJtJq--20" connectable="0" vertex="1">
          <mxGeometry relative="1" as="geometry">
            <mxPoint x="7" as="offset" />
          </mxGeometry>
        </mxCell>
        <mxCell id="wiPwyt0miK05mvKJtJq--22" value="How to Order:&amp;nbsp;Consult the online list to identify the records that you require. Order using reference code and barcode number." style="html=1;whiteSpace=wrap;rounded=1;arcSize=50;" parent="1" vertex="1">
          <mxGeometry x="-660" y="340" width="260" height="80" as="geometry" />
        </mxCell>
        <mxCell id="wiPwyt0miK05mvKJtJq--23" value="F 47-11-3" style="swimlane;fontStyle=0;childLayout=stackLayout;horizontal=1;startSize=26;fillColor=none;horizontalStack=0;resizeParent=1;resizeParentMax=0;resizeLast=0;collapsible=1;marginBottom=0;whiteSpace=wrap;html=1;" parent="1" vertex="1">
          <mxGeometry x="130" y="50" width="110" height="52" as="geometry">
            <mxRectangle x="981" y="570" width="50" height="40" as="alternateBounds" />
          </mxGeometry>
        </mxCell>
        <mxCell id="wiPwyt0miK05mvKJtJq--24" value="rico:Identifier&lt;div&gt;&lt;br&gt;&lt;/div&gt;" style="text;strokeColor=none;fillColor=none;align=center;verticalAlign=top;spacingLeft=4;spacingRight=4;overflow=hidden;rotatable=0;points=[[0,0.5],[1,0.5]];portConstraint=eastwest;whiteSpace=wrap;html=1;" parent="wiPwyt0miK05mvKJtJq--23" vertex="1">
          <mxGeometry y="26" width="110" height="26" as="geometry" />
        </mxCell>
        <mxCell id="wiPwyt0miK05mvKJtJq--25" value="" style="endArrow=classic;html=1;rounded=0;exitX=0.25;exitY=0;exitDx=0;exitDy=0;entryX=0.467;entryY=1.051;entryDx=0;entryDy=0;entryPerimeter=0;" parent="1" source="sWa0SD8Ajx1KSGOqKPP4-1" target="wiPwyt0miK05mvKJtJq--24" edge="1">
          <mxGeometry relative="1" as="geometry">
            <mxPoint x="340" y="362" as="sourcePoint" />
            <mxPoint x="260" y="242" as="targetPoint" />
          </mxGeometry>
        </mxCell>
        <mxCell id="wiPwyt0miK05mvKJtJq--26" value="rico:hasOrHadIdentifier" style="edgeLabel;resizable=0;html=1;;align=center;verticalAlign=middle;" parent="wiPwyt0miK05mvKJtJq--25" connectable="0" vertex="1">
          <mxGeometry relative="1" as="geometry">
            <mxPoint x="-33" y="-53" as="offset" />
          </mxGeometry>
        </mxCell>
        <mxCell id="wiPwyt0miK05mvKJtJq--31" value="" style="endArrow=classic;html=1;rounded=0;exitX=0.434;exitY=-0.017;exitDx=0;exitDy=0;exitPerimeter=0;entryX=0.699;entryY=1.06;entryDx=0;entryDy=0;entryPerimeter=0;" parent="1" source="wiPwyt0miK05mvKJtJq--23" target="wiPwyt0miK05mvKJtJq--34" edge="1">
          <mxGeometry relative="1" as="geometry">
            <mxPoint x="-180" y="-150" as="sourcePoint" />
            <mxPoint x="-40" y="-140" as="targetPoint" />
          </mxGeometry>
        </mxCell>
        <mxCell id="wiPwyt0miK05mvKJtJq--32" value="rico:hasIdentifierType" style="edgeLabel;resizable=0;html=1;;align=center;verticalAlign=middle;" parent="wiPwyt0miK05mvKJtJq--31" connectable="0" vertex="1">
          <mxGeometry relative="1" as="geometry" />
        </mxCell>
        <mxCell id="wiPwyt0miK05mvKJtJq--33" value="Current Reference Code" style="swimlane;fontStyle=0;childLayout=stackLayout;horizontal=1;startSize=26;fillColor=none;horizontalStack=0;resizeParent=1;resizeParentMax=0;resizeLast=0;collapsible=1;marginBottom=0;whiteSpace=wrap;html=1;strokeColor=#FF0000;" parent="1" vertex="1">
          <mxGeometry x="18.25" y="-110" width="129" height="52" as="geometry">
            <mxRectangle x="981" y="570" width="50" height="40" as="alternateBounds" />
          </mxGeometry>
        </mxCell>
        <mxCell id="wiPwyt0miK05mvKJtJq--34" value="rico:IdentifierType&lt;div&gt;&lt;br&gt;&lt;/div&gt;" style="text;strokeColor=none;fillColor=none;align=center;verticalAlign=top;spacingLeft=4;spacingRight=4;overflow=hidden;rotatable=0;points=[[0,0.5],[1,0.5]];portConstraint=eastwest;whiteSpace=wrap;html=1;" parent="wiPwyt0miK05mvKJtJq--33" vertex="1">
          <mxGeometry y="26" width="129" height="26" as="geometry" />
        </mxCell>
        <mxCell id="wiPwyt0miK05mvKJtJq--53" value="" style="endArrow=classic;html=1;rounded=0;entryX=0;entryY=-0.013;entryDx=0;entryDy=0;entryPerimeter=0;exitX=1.002;exitY=0.115;exitDx=0;exitDy=0;exitPerimeter=0;" parent="1" source="sWa0SD8Ajx1KSGOqKPP4-1" target="wiPwyt0miK05mvKJtJq--56" edge="1">
          <mxGeometry relative="1" as="geometry">
            <mxPoint x="500" y="370" as="sourcePoint" />
            <mxPoint x="800" y="240" as="targetPoint" />
          </mxGeometry>
        </mxCell>
        <mxCell id="wiPwyt0miK05mvKJtJq--54" value="rico:isOrWasDescribedBy" style="edgeLabel;resizable=0;html=1;;align=center;verticalAlign=middle;" parent="wiPwyt0miK05mvKJtJq--53" connectable="0" vertex="1">
          <mxGeometry relative="1" as="geometry" />
        </mxCell>
        <mxCell id="wiPwyt0miK05mvKJtJq--55" value="Elizabeth Simcoe miscellaneous sketches and fragments&amp;nbsp;Archival Description" style="swimlane;fontStyle=0;childLayout=stackLayout;horizontal=1;startSize=26;fillColor=none;horizontalStack=0;resizeParent=1;resizeParentMax=0;resizeLast=0;collapsible=1;marginBottom=0;whiteSpace=wrap;html=1;strokeColor=#FF0000;" parent="1" vertex="1">
          <mxGeometry x="670" y="223" width="280" height="52" as="geometry" />
        </mxCell>
        <mxCell id="wiPwyt0miK05mvKJtJq--56" value="rico:Record" style="text;strokeColor=none;fillColor=none;align=center;verticalAlign=top;spacingLeft=4;spacingRight=4;overflow=hidden;rotatable=0;points=[[0,0.5],[1,0.5]];portConstraint=eastwest;whiteSpace=wrap;html=1;" parent="wiPwyt0miK05mvKJtJq--55" vertex="1">
          <mxGeometry y="26" width="280" height="26" as="geometry" />
        </mxCell>
        <mxCell id="wiPwyt0miK05mvKJtJq--57" value="" style="endArrow=classic;html=1;rounded=0;exitX=1;exitY=0.5;exitDx=0;exitDy=0;entryX=0.347;entryY=1.026;entryDx=0;entryDy=0;entryPerimeter=0;" parent="1" source="wiPwyt0miK05mvKJtJq--55" target="wiPwyt0miK05mvKJtJq--60" edge="1">
          <mxGeometry relative="1" as="geometry">
            <mxPoint x="890" y="170.00000000000023" as="sourcePoint" />
            <mxPoint x="1030" y="180" as="targetPoint" />
          </mxGeometry>
        </mxCell>
        <mxCell id="wiPwyt0miK05mvKJtJq--58" value="rico:resultsOrResultedFrom" style="edgeLabel;resizable=0;html=1;;align=center;verticalAlign=middle;" parent="wiPwyt0miK05mvKJtJq--57" connectable="0" vertex="1">
          <mxGeometry relative="1" as="geometry">
            <mxPoint x="14" y="-7" as="offset" />
          </mxGeometry>
        </mxCell>
        <mxCell id="wiPwyt0miK05mvKJtJq--59" value="Archival Description Creation" style="swimlane;fontStyle=0;childLayout=stackLayout;horizontal=1;startSize=26;fillColor=none;horizontalStack=0;resizeParent=1;resizeParentMax=0;resizeLast=0;collapsible=1;marginBottom=0;whiteSpace=wrap;html=1;strokeColor=#FF0000;" parent="1" vertex="1">
          <mxGeometry x="1090" y="117" width="150" height="52" as="geometry" />
        </mxCell>
        <mxCell id="wiPwyt0miK05mvKJtJq--60" value="rico:Activity" style="text;strokeColor=none;fillColor=none;align=center;verticalAlign=top;spacingLeft=4;spacingRight=4;overflow=hidden;rotatable=0;points=[[0,0.5],[1,0.5]];portConstraint=eastwest;whiteSpace=wrap;html=1;" parent="wiPwyt0miK05mvKJtJq--59" vertex="1">
          <mxGeometry y="26" width="150" height="26" as="geometry" />
        </mxCell>
        <mxCell id="wiPwyt0miK05mvKJtJq--61" value="" style="endArrow=classic;html=1;rounded=0;exitX=0.5;exitY=0;exitDx=0;exitDy=0;entryX=0.499;entryY=0.981;entryDx=0;entryDy=0;entryPerimeter=0;" parent="1" source="wiPwyt0miK05mvKJtJq--59" target="wiPwyt0miK05mvKJtJq--64" edge="1">
          <mxGeometry relative="1" as="geometry">
            <mxPoint x="1030" y="80" as="sourcePoint" />
            <mxPoint x="1105" y="60" as="targetPoint" />
          </mxGeometry>
        </mxCell>
        <mxCell id="wiPwyt0miK05mvKJtJq--62" value="rico:isOrWasPerformedBy" style="edgeLabel;resizable=0;html=1;;align=center;verticalAlign=middle;" parent="wiPwyt0miK05mvKJtJq--61" connectable="0" vertex="1">
          <mxGeometry relative="1" as="geometry" />
        </mxCell>
        <mxCell id="wiPwyt0miK05mvKJtJq--63" value="Walz" style="swimlane;fontStyle=0;childLayout=stackLayout;horizontal=1;startSize=26;fillColor=none;horizontalStack=0;resizeParent=1;resizeParentMax=0;resizeLast=0;collapsible=1;marginBottom=0;whiteSpace=wrap;html=1;" parent="1" vertex="1">
          <mxGeometry x="1210" y="8" width="140" height="52" as="geometry" />
        </mxCell>
        <mxCell id="wiPwyt0miK05mvKJtJq--64" value="rico:Person" style="text;strokeColor=none;fillColor=none;align=center;verticalAlign=top;spacingLeft=4;spacingRight=4;overflow=hidden;rotatable=0;points=[[0,0.5],[1,0.5]];portConstraint=eastwest;whiteSpace=wrap;html=1;" parent="wiPwyt0miK05mvKJtJq--63" vertex="1">
          <mxGeometry y="26" width="140" height="26" as="geometry" />
        </mxCell>
        <mxCell id="Pa1L8ZfUJXBHrEYyGiSI-1" value="Elizabeth Simcoe miscellaneous sketches and fragments" style="swimlane;fontStyle=0;childLayout=stackLayout;horizontal=1;startSize=26;fillColor=none;horizontalStack=0;resizeParent=1;resizeParentMax=0;resizeLast=0;collapsible=1;marginBottom=0;whiteSpace=wrap;html=1;" parent="1" vertex="1">
          <mxGeometry x="480" y="102" width="210" height="52" as="geometry">
            <mxRectangle x="981" y="570" width="50" height="40" as="alternateBounds" />
          </mxGeometry>
        </mxCell>
        <mxCell id="Pa1L8ZfUJXBHrEYyGiSI-2" value="rico:Title&lt;div&gt;&lt;br&gt;&lt;/div&gt;" style="text;strokeColor=none;fillColor=none;align=center;verticalAlign=top;spacingLeft=4;spacingRight=4;overflow=hidden;rotatable=0;points=[[0,0.5],[1,0.5]];portConstraint=eastwest;whiteSpace=wrap;html=1;" parent="Pa1L8ZfUJXBHrEYyGiSI-1" vertex="1">
          <mxGeometry y="26" width="210" height="26" as="geometry" />
        </mxCell>
        <mxCell id="Pa1L8ZfUJXBHrEYyGiSI-3" value="" style="endArrow=classic;html=1;rounded=0;exitX=0.878;exitY=0.004;exitDx=0;exitDy=0;exitPerimeter=0;entryX=0.513;entryY=1.026;entryDx=0;entryDy=0;entryPerimeter=0;" parent="1" source="sWa0SD8Ajx1KSGOqKPP4-1" target="Pa1L8ZfUJXBHrEYyGiSI-2" edge="1">
          <mxGeometry relative="1" as="geometry">
            <mxPoint x="380" y="330" as="sourcePoint" />
            <mxPoint x="380" y="230.00000000000023" as="targetPoint" />
          </mxGeometry>
        </mxCell>
        <mxCell id="Pa1L8ZfUJXBHrEYyGiSI-4" value="rico:hasOrHadTitle" style="edgeLabel;resizable=0;html=1;;align=center;verticalAlign=middle;" parent="Pa1L8ZfUJXBHrEYyGiSI-3" connectable="0" vertex="1">
          <mxGeometry relative="1" as="geometry">
            <mxPoint x="19" y="-53" as="offset" />
          </mxGeometry>
        </mxCell>
        <mxCell id="rlVAaZdWDM-1AO-MbrP8-1" value="" style="endArrow=classic;html=1;rounded=0;exitX=1;exitY=0.5;exitDx=0;exitDy=0;entryX=0;entryY=0.25;entryDx=0;entryDy=0;" parent="1" source="wiPwyt0miK05mvKJtJq--56" target="rlVAaZdWDM-1AO-MbrP8-3" edge="1">
          <mxGeometry relative="1" as="geometry">
            <mxPoint x="990" y="260" as="sourcePoint" />
            <mxPoint x="1100" y="320" as="targetPoint" />
          </mxGeometry>
        </mxCell>
        <mxCell id="rlVAaZdWDM-1AO-MbrP8-2" value="rico:lastModificationDate" style="edgeLabel;resizable=0;html=1;;align=center;verticalAlign=middle;" parent="rlVAaZdWDM-1AO-MbrP8-1" connectable="0" vertex="1">
          <mxGeometry relative="1" as="geometry" />
        </mxCell>
        <mxCell id="rlVAaZdWDM-1AO-MbrP8-3" value="2009-07-17" style="html=1;whiteSpace=wrap;rounded=1;arcSize=50;" parent="1" vertex="1">
          <mxGeometry x="1130" y="300" width="110" height="50" as="geometry" />
        </mxCell>
        <mxCell id="JUvVhaggt__ALHUesofw-1" value="Archival Description" style="swimlane;fontStyle=0;childLayout=stackLayout;horizontal=1;startSize=26;fillColor=none;horizontalStack=0;resizeParent=1;resizeParentMax=0;resizeLast=0;collapsible=1;marginBottom=0;whiteSpace=wrap;html=1;strokeColor=#FF0000;" parent="1" vertex="1">
          <mxGeometry x="681" y="-100" width="189" height="52" as="geometry">
            <mxRectangle x="981" y="570" width="50" height="40" as="alternateBounds" />
          </mxGeometry>
        </mxCell>
        <mxCell id="JUvVhaggt__ALHUesofw-2" value="rico:DocumentaryFormType&lt;div&gt;&lt;br&gt;&lt;/div&gt;" style="text;strokeColor=none;fillColor=none;align=center;verticalAlign=top;spacingLeft=4;spacingRight=4;overflow=hidden;rotatable=0;points=[[0,0.5],[1,0.5]];portConstraint=eastwest;whiteSpace=wrap;html=1;" parent="JUvVhaggt__ALHUesofw-1" vertex="1">
          <mxGeometry y="26" width="189" height="26" as="geometry" />
        </mxCell>
        <mxCell id="JUvVhaggt__ALHUesofw-3" value="" style="endArrow=classic;html=1;rounded=0;entryX=0.486;entryY=0.949;entryDx=0;entryDy=0;entryPerimeter=0;exitX=0.315;exitY=0.011;exitDx=0;exitDy=0;exitPerimeter=0;" parent="1" source="wiPwyt0miK05mvKJtJq--55" target="JUvVhaggt__ALHUesofw-2" edge="1">
          <mxGeometry relative="1" as="geometry">
            <mxPoint x="870" y="220" as="sourcePoint" />
            <mxPoint x="1050" y="-20" as="targetPoint" />
          </mxGeometry>
        </mxCell>
        <mxCell id="JUvVhaggt__ALHUesofw-4" value="rico:hasDocumentaryFormType" style="edgeLabel;resizable=0;html=1;;align=center;verticalAlign=middle;" parent="JUvVhaggt__ALHUesofw-3" connectable="0" vertex="1">
          <mxGeometry relative="1" as="geometry">
            <mxPoint x="-18" y="-93" as="offset" />
          </mxGeometry>
        </mxCell>
        <mxCell id="JUvVhaggt__ALHUesofw-5" value="" style="endArrow=classic;html=1;rounded=0;entryX=0.543;entryY=1.004;entryDx=0;entryDy=0;entryPerimeter=0;exitX=0.5;exitY=0;exitDx=0;exitDy=0;" parent="1" source="wiPwyt0miK05mvKJtJq--55" target="JUvVhaggt__ALHUesofw-10" edge="1">
          <mxGeometry relative="1" as="geometry">
            <mxPoint x="900" y="190" as="sourcePoint" />
            <mxPoint x="980" y="-60" as="targetPoint" />
          </mxGeometry>
        </mxCell>
        <mxCell id="JUvVhaggt__ALHUesofw-6" value="rico:hasRecordState" style="edgeLabel;resizable=0;html=1;;align=center;verticalAlign=middle;" parent="JUvVhaggt__ALHUesofw-5" connectable="0" vertex="1">
          <mxGeometry relative="1" as="geometry">
            <mxPoint x="39" y="-95" as="offset" />
          </mxGeometry>
        </mxCell>
        <mxCell id="JUvVhaggt__ALHUesofw-7" value="" style="endArrow=classic;html=1;rounded=0;exitX=0.637;exitY=-0.019;exitDx=0;exitDy=0;exitPerimeter=0;entryX=0.372;entryY=1.038;entryDx=0;entryDy=0;entryPerimeter=0;" parent="1" source="wiPwyt0miK05mvKJtJq--55" target="JUvVhaggt__ALHUesofw-12" edge="1">
          <mxGeometry relative="1" as="geometry">
            <mxPoint x="1010" y="156" as="sourcePoint" />
            <mxPoint x="1050" y="-120" as="targetPoint" />
          </mxGeometry>
        </mxCell>
        <mxCell id="JUvVhaggt__ALHUesofw-8" value="rico:hasRecordState" style="edgeLabel;resizable=0;html=1;;align=center;verticalAlign=middle;" parent="JUvVhaggt__ALHUesofw-7" connectable="0" vertex="1">
          <mxGeometry relative="1" as="geometry">
            <mxPoint x="83" y="-102" as="offset" />
          </mxGeometry>
        </mxCell>
        <mxCell id="JUvVhaggt__ALHUesofw-9" value="Status: Approved" style="swimlane;fontStyle=0;childLayout=stackLayout;horizontal=1;startSize=26;fillColor=none;horizontalStack=0;resizeParent=1;resizeParentMax=0;resizeLast=0;collapsible=1;marginBottom=0;whiteSpace=wrap;html=1;" parent="1" vertex="1">
          <mxGeometry x="910" y="-145" width="150" height="52" as="geometry">
            <mxRectangle x="981" y="570" width="50" height="40" as="alternateBounds" />
          </mxGeometry>
        </mxCell>
        <mxCell id="JUvVhaggt__ALHUesofw-10" value="rico:RecordState&lt;div&gt;&lt;br&gt;&lt;/div&gt;" style="text;strokeColor=none;fillColor=none;align=center;verticalAlign=top;spacingLeft=4;spacingRight=4;overflow=hidden;rotatable=0;points=[[0,0.5],[1,0.5]];portConstraint=eastwest;whiteSpace=wrap;html=1;" parent="JUvVhaggt__ALHUesofw-9" vertex="1">
          <mxGeometry y="26" width="150" height="26" as="geometry" />
        </mxCell>
        <mxCell id="JUvVhaggt__ALHUesofw-11" value="Web Enabled: Y" style="swimlane;fontStyle=0;childLayout=stackLayout;horizontal=1;startSize=26;fillColor=none;horizontalStack=0;resizeParent=1;resizeParentMax=0;resizeLast=0;collapsible=1;marginBottom=0;whiteSpace=wrap;html=1;" parent="1" vertex="1">
          <mxGeometry x="1100" y="-110" width="150" height="52" as="geometry">
            <mxRectangle x="981" y="570" width="50" height="40" as="alternateBounds" />
          </mxGeometry>
        </mxCell>
        <mxCell id="JUvVhaggt__ALHUesofw-12" value="rico:RecordState&lt;div&gt;&lt;br&gt;&lt;/div&gt;" style="text;strokeColor=none;fillColor=none;align=center;verticalAlign=top;spacingLeft=4;spacingRight=4;overflow=hidden;rotatable=0;points=[[0,0.5],[1,0.5]];portConstraint=eastwest;whiteSpace=wrap;html=1;" parent="JUvVhaggt__ALHUesofw-11" vertex="1">
          <mxGeometry y="26" width="150" height="26" as="geometry" />
        </mxCell>
        <mxCell id="lszSfj4lrEIONad0Ssyt-3" value="" style="endArrow=classic;html=1;rounded=0;exitX=0.249;exitY=1.026;exitDx=0;exitDy=0;exitPerimeter=0;entryX=1;entryY=0.25;entryDx=0;entryDy=0;" parent="1" source="sWa0SD8Ajx1KSGOqKPP4-2" target="ACwB7Extp0PWbiBKnaxu-5" edge="1">
          <mxGeometry relative="1" as="geometry">
            <mxPoint x="64.5" y="634" as="sourcePoint" />
            <mxPoint x="-22" y="763" as="targetPoint" />
          </mxGeometry>
        </mxCell>
        <mxCell id="lszSfj4lrEIONad0Ssyt-4" value="rico:hasContentOfType" style="edgeLabel;resizable=0;html=1;;align=center;verticalAlign=middle;" parent="lszSfj4lrEIONad0Ssyt-3" connectable="0" vertex="1">
          <mxGeometry relative="1" as="geometry">
            <mxPoint x="-131" y="85" as="offset" />
          </mxGeometry>
        </mxCell>
        <mxCell id="NtwbBurvTleTFVB1CDUG-1" value="" style="endArrow=classic;html=1;rounded=0;exitX=0.005;exitY=0.904;exitDx=0;exitDy=0;exitPerimeter=0;entryX=1;entryY=0.25;entryDx=0;entryDy=0;" parent="1" source="sWa0SD8Ajx1KSGOqKPP4-2" target="NtwbBurvTleTFVB1CDUG-3" edge="1">
          <mxGeometry relative="1" as="geometry">
            <mxPoint x="105" y="510" as="sourcePoint" />
            <mxPoint x="-100" y="620" as="targetPoint" />
            <Array as="points">
              <mxPoint x="60" y="540" />
            </Array>
          </mxGeometry>
        </mxCell>
        <mxCell id="NtwbBurvTleTFVB1CDUG-2" value="rico:generalDescription" style="edgeLabel;resizable=0;html=1;;align=center;verticalAlign=middle;" parent="NtwbBurvTleTFVB1CDUG-1" connectable="0" vertex="1">
          <mxGeometry relative="1" as="geometry">
            <mxPoint x="-94" y="28" as="offset" />
          </mxGeometry>
        </mxCell>
        <mxCell id="NtwbBurvTleTFVB1CDUG-3" value="Availability of Other Formats:&amp;nbsp;Some of this material is available through the Archives&#39; on-line Visual Database." style="html=1;whiteSpace=wrap;rounded=1;arcSize=50;" parent="1" vertex="1">
          <mxGeometry x="-500" y="600" width="315" height="50" as="geometry" />
        </mxCell>
        <mxCell id="hDRFmwmGqqun0fTEbF33-1" value="" style="endArrow=classic;html=1;rounded=0;exitX=0;exitY=0.25;exitDx=0;exitDy=0;entryX=0.636;entryY=0.9;entryDx=0;entryDy=0;entryPerimeter=0;" parent="1" source="sWa0SD8Ajx1KSGOqKPP4-1" target="hDRFmwmGqqun0fTEbF33-3" edge="1">
          <mxGeometry relative="1" as="geometry">
            <mxPoint x="-90" y="310" as="sourcePoint" />
            <mxPoint x="10" y="290" as="targetPoint" />
          </mxGeometry>
        </mxCell>
        <mxCell id="hDRFmwmGqqun0fTEbF33-2" value="rico:creationDate" style="edgeLabel;resizable=0;html=1;;align=center;verticalAlign=middle;" parent="hDRFmwmGqqun0fTEbF33-1" connectable="0" vertex="1">
          <mxGeometry relative="1" as="geometry" />
        </mxCell>
        <mxCell id="hDRFmwmGqqun0fTEbF33-3" value="[ca. 1790-1840]" style="html=1;whiteSpace=wrap;rounded=1;arcSize=50;" parent="1" vertex="1">
          <mxGeometry y="140" width="110" height="20" as="geometry" />
        </mxCell>
        <mxCell id="ACwB7Extp0PWbiBKnaxu-5" value="Graphic materials" style="swimlane;fontStyle=0;childLayout=stackLayout;horizontal=1;startSize=26;fillColor=none;horizontalStack=0;resizeParent=1;resizeParentMax=0;resizeLast=0;collapsible=1;marginBottom=0;whiteSpace=wrap;html=1;" parent="1" vertex="1">
          <mxGeometry x="-240" y="714" width="178" height="52" as="geometry">
            <mxRectangle x="981" y="570" width="50" height="40" as="alternateBounds" />
          </mxGeometry>
        </mxCell>
        <mxCell id="ACwB7Extp0PWbiBKnaxu-6" value="rico:ContentType&lt;div&gt;&lt;br&gt;&lt;/div&gt;" style="text;strokeColor=none;fillColor=none;align=center;verticalAlign=top;spacingLeft=4;spacingRight=4;overflow=hidden;rotatable=0;points=[[0,0.5],[1,0.5]];portConstraint=eastwest;whiteSpace=wrap;html=1;" parent="ACwB7Extp0PWbiBKnaxu-5" vertex="1">
          <mxGeometry y="26" width="178" height="26" as="geometry" />
        </mxCell>
        <mxCell id="ACwB7Extp0PWbiBKnaxu-11" value="" style="endArrow=classic;html=1;rounded=0;exitX=0.5;exitY=0;exitDx=0;exitDy=0;entryX=0.587;entryY=1.085;entryDx=0;entryDy=0;entryPerimeter=0;" parent="1" source="sWa0SD8Ajx1KSGOqKPP4-1" target="ACwB7Extp0PWbiBKnaxu-14" edge="1">
          <mxGeometry relative="1" as="geometry">
            <mxPoint x="340" y="102" as="sourcePoint" />
            <mxPoint x="330" y="-28" as="targetPoint" />
          </mxGeometry>
        </mxCell>
        <mxCell id="ACwB7Extp0PWbiBKnaxu-12" value="rico:isDirectlyIncludedIn" style="edgeLabel;resizable=0;html=1;;align=center;verticalAlign=middle;" parent="ACwB7Extp0PWbiBKnaxu-11" connectable="0" vertex="1">
          <mxGeometry relative="1" as="geometry">
            <mxPoint x="-9" y="-102" as="offset" />
          </mxGeometry>
        </mxCell>
        <mxCell id="ACwB7Extp0PWbiBKnaxu-13" value="Elizabeth Simcoe sketches" style="swimlane;fontStyle=0;childLayout=stackLayout;horizontal=1;startSize=26;fillColor=none;horizontalStack=0;resizeParent=1;resizeParentMax=0;resizeLast=0;collapsible=1;marginBottom=0;whiteSpace=wrap;html=1;strokeColor=#FF0000;" parent="1" vertex="1">
          <mxGeometry x="240" y="-100" width="140" height="52" as="geometry" />
        </mxCell>
        <mxCell id="ACwB7Extp0PWbiBKnaxu-14" value="rico:RecordSet" style="text;strokeColor=none;fillColor=none;align=center;verticalAlign=top;spacingLeft=4;spacingRight=4;overflow=hidden;rotatable=0;points=[[0,0.5],[1,0.5]];portConstraint=eastwest;whiteSpace=wrap;html=1;" parent="ACwB7Extp0PWbiBKnaxu-13" vertex="1">
          <mxGeometry y="26" width="140" height="26" as="geometry" />
        </mxCell>
        <mxCell id="ACwB7Extp0PWbiBKnaxu-15" value="" style="endArrow=classic;html=1;rounded=0;exitX=0.25;exitY=0;exitDx=0;exitDy=0;entryX=0.591;entryY=1.103;entryDx=0;entryDy=0;entryPerimeter=0;" parent="1" source="ACwB7Extp0PWbiBKnaxu-13" target="ACwB7Extp0PWbiBKnaxu-18" edge="1">
          <mxGeometry relative="1" as="geometry">
            <mxPoint x="270" y="-123" as="sourcePoint" />
            <mxPoint x="200" y="-220" as="targetPoint" />
          </mxGeometry>
        </mxCell>
        <mxCell id="ACwB7Extp0PWbiBKnaxu-16" value="rico:hasOrHadIdentifier" style="edgeLabel;resizable=0;html=1;;align=center;verticalAlign=middle;" parent="ACwB7Extp0PWbiBKnaxu-15" connectable="0" vertex="1">
          <mxGeometry relative="1" as="geometry">
            <mxPoint x="2" y="15" as="offset" />
          </mxGeometry>
        </mxCell>
        <mxCell id="ACwB7Extp0PWbiBKnaxu-17" value="F 47-11" style="swimlane;fontStyle=0;childLayout=stackLayout;horizontal=1;startSize=26;fillColor=none;horizontalStack=0;resizeParent=1;resizeParentMax=0;resizeLast=0;collapsible=1;marginBottom=0;whiteSpace=wrap;html=1;" parent="1" vertex="1">
          <mxGeometry x="130" y="-280" width="110" height="52" as="geometry">
            <mxRectangle x="981" y="570" width="50" height="40" as="alternateBounds" />
          </mxGeometry>
        </mxCell>
        <mxCell id="ACwB7Extp0PWbiBKnaxu-18" value="rico:Identifier&lt;div&gt;&lt;br&gt;&lt;/div&gt;" style="text;strokeColor=none;fillColor=none;align=center;verticalAlign=top;spacingLeft=4;spacingRight=4;overflow=hidden;rotatable=0;points=[[0,0.5],[1,0.5]];portConstraint=eastwest;whiteSpace=wrap;html=1;" parent="ACwB7Extp0PWbiBKnaxu-17" vertex="1">
          <mxGeometry y="26" width="110" height="26" as="geometry" />
        </mxCell>
        <mxCell id="ACwB7Extp0PWbiBKnaxu-19" value="" style="endArrow=classic;html=1;rounded=0;exitX=0.587;exitY=-0.017;exitDx=0;exitDy=0;exitPerimeter=0;entryX=0.409;entryY=0.966;entryDx=0;entryDy=0;entryPerimeter=0;" parent="1" source="ACwB7Extp0PWbiBKnaxu-13" target="ACwB7Extp0PWbiBKnaxu-22" edge="1">
          <mxGeometry relative="1" as="geometry">
            <mxPoint x="330" y="-125" as="sourcePoint" />
            <mxPoint x="390" y="-200" as="targetPoint" />
          </mxGeometry>
        </mxCell>
        <mxCell id="ACwB7Extp0PWbiBKnaxu-20" value="rico:hasRecordSetType" style="edgeLabel;resizable=0;html=1;;align=center;verticalAlign=middle;" parent="ACwB7Extp0PWbiBKnaxu-19" connectable="0" vertex="1">
          <mxGeometry relative="1" as="geometry" />
        </mxCell>
        <mxCell id="ACwB7Extp0PWbiBKnaxu-21" value="Series" style="swimlane;fontStyle=0;childLayout=stackLayout;horizontal=1;startSize=26;fillColor=none;horizontalStack=0;resizeParent=1;resizeParentMax=0;resizeLast=0;collapsible=1;marginBottom=0;whiteSpace=wrap;html=1;strokeColor=#FF0000;" parent="1" vertex="1">
          <mxGeometry x="360" y="-280" width="140" height="52" as="geometry">
            <mxRectangle x="981" y="570" width="50" height="40" as="alternateBounds" />
          </mxGeometry>
        </mxCell>
        <mxCell id="ACwB7Extp0PWbiBKnaxu-22" value="rico:RecordSetType&lt;div&gt;&lt;br&gt;&lt;/div&gt;" style="text;strokeColor=none;fillColor=none;align=center;verticalAlign=top;spacingLeft=4;spacingRight=4;overflow=hidden;rotatable=0;points=[[0,0.5],[1,0.5]];portConstraint=eastwest;whiteSpace=wrap;html=1;" parent="ACwB7Extp0PWbiBKnaxu-21" vertex="1">
          <mxGeometry y="26" width="140" height="26" as="geometry" />
        </mxCell>
      </root>
    </mxGraphModel>
  </diagram>
</mxfile>
